<?xml version="1.0" encoding="UTF-8"?>
<svg width="238px" height="235px" viewBox="0 0 238 235" version="1.1" xmlns="http://www.w3.org/2000/svg" xmlns:xlink="http://www.w3.org/1999/xlink">
    <!-- Generator: Sketch 63.1 (92452) - https://sketch.com -->
    <title>RQ_Feather_CMYK</title>
    <desc>Created with Sketch.</desc>
    <g id="RQ_Feather_CMYK" stroke="none" stroke-width="1" fill="none" fill-rule="evenodd">
        <path d="M121.148,46.359 C122.6,43.638 120.692,37.781 118.555,32.833 C61.741,-16.315 0,4.838 0,4.838 C16.856,2.257 33.734,8.177 50.162,19.535 C57.178,21.901 77.313,28.947 80.335,32.902 C80.335,32.902 67.438,27.926 58.744,25.981 C71.869,36.613 84.646,50.441 96.829,65.86 C106.043,68.419 121.077,81.674 121.077,81.674 C117.961,79.006 108.073,74.506 101.262,71.572 C110.22,83.323 115.098,96.334 123.26,108.966 C145.788,155.088 191.747,165.061 203.764,166.914 C212.289,183.518 219.434,200.5 221.892,219.299 C228.436,221.613 233.65,226.825 235.933,233.469 C237.065,234.407 237.777,234.999 237.777,234.999 C227.177,207.263 214.723,180.425 202.041,157.103 C175.449,100.007 148.593,59.668 124.007,37.781 C122.918,44.836 119.604,49.252 121.148,46.359" id="Fill-1" fill="#EDDCC5"></path>
    </g>
</svg>