<?xml version="1.0" encoding="UTF-8" standalone="no"?>
<!DOCTYPE svg PUBLIC "-//W3C//DTD SVG 1.1//EN" "http://www.w3.org/Graphics/SVG/1.1/DTD/svg11.dtd">
<svg width="100%" height="100%" viewBox="0 0 2171 238" version="1.1" xmlns="http://www.w3.org/2000/svg" xmlns:xlink="http://www.w3.org/1999/xlink" xml:space="preserve" xmlns:serif="http://www.serif.com/" style="fill-rule:evenodd;clip-rule:evenodd;stroke-linejoin:round;stroke-miterlimit:2;">
    <g transform="matrix(4.16667,0,0,4.16667,0,0)">
        <path d="M26.655,18.536C28.296,17.99 29.585,16.991 30.518,15.541C31.452,14.094 31.919,12.42 31.919,10.521C31.919,8.332 31.258,6.367 29.939,4.628C28.072,2.184 25.173,0.959 21.247,0.959L0,0.959L0,2.119C1.544,2.184 2.59,2.441 3.139,2.891C3.846,3.503 4.201,4.693 4.201,6.465L4.201,29.305C4.201,31.011 3.952,32.105 3.452,32.588C2.953,33.071 1.803,33.408 0,33.602L0,34.761L11.058,34.761L11.058,21.481L18.37,21.481C20.807,21.481 22.379,21.981 23.085,22.978C23.597,23.75 23.855,25.409 23.855,27.952C23.855,30.785 24.113,33.055 24.632,34.761L32.45,34.761L32.45,33.891C31.806,33.634 31.395,33.119 31.219,32.346C31.042,31.574 30.952,29.835 30.952,27.132C30.952,24.203 30.583,22.125 29.843,20.902C29.327,20.001 28.265,19.212 26.655,18.536ZM24.82,11.22C24.82,14.294 23.001,15.831 19.364,15.831L11.058,15.831L11.058,8.745C11.058,7.837 11.315,7.255 11.83,6.997C12.185,6.835 12.909,6.754 14.003,6.754L19.894,6.754C23.178,6.754 24.82,8.242 24.82,11.22Z" style="fill:white;fill-rule:nonzero;"/>
        <path d="M89.816,0.959L78.758,0.959L78.758,23.269C78.758,27.518 76.489,29.643 71.95,29.643C70.178,29.643 68.762,29.111 67.7,28.049C66.509,26.859 65.914,25.136 65.914,22.882L65.914,0.959L54.856,0.959L54.856,2.166C56.401,2.296 57.398,2.586 57.848,3.036C58.429,3.583 58.718,4.742 58.718,6.512L58.718,23.51C58.718,27.76 60.103,30.931 62.871,33.023C65.221,34.792 68.295,35.679 72.094,35.679C81.333,35.679 85.953,31.429 85.953,22.931L85.953,6.512C85.953,4.773 86.227,3.631 86.775,3.083C87.225,2.601 88.238,2.296 89.816,2.166L89.816,0.959Z" style="fill:white;fill-rule:nonzero;"/>
        <path d="M136.791,18.32C135.503,17.26 133.442,16.344 130.61,15.572L122.353,13.304C119.52,12.534 118.103,11.039 118.103,8.822C118.103,7.213 118.715,5.849 119.938,4.723C121.387,3.341 123.495,2.649 126.265,2.649C128.807,2.649 131.076,3.577 133.073,5.434C134.779,7.035 135.89,8.794 136.404,10.713L137.709,10.713L137.709,0.477L136.308,0.477C136.049,1.571 135.407,2.118 134.378,2.118C133.572,2.118 132.653,1.945 131.624,1.602C129.339,0.853 126.828,0.477 124.092,0.477C116.269,0.477 112.357,3.648 112.357,9.99C112.357,11.824 113.048,13.628 114.434,15.397C116.525,18.07 119.761,19.857 124.139,20.757C129.838,21.916 132.686,23.494 132.686,25.49C132.686,28.419 130.336,29.884 125.637,29.884C120.937,29.884 118.538,28.05 118.441,24.379L111.681,24.379C111.681,27.277 112.551,29.691 114.289,31.623C116.703,34.326 120.646,35.678 126.12,35.678C129.047,35.678 131.64,35.115 133.895,33.991C137.627,32.127 139.496,29.009 139.496,24.636C139.496,21.905 138.593,19.799 136.791,18.32Z" style="fill:white;fill-rule:nonzero;"/>
        <path d="M189.126,0.959L161.65,0.959L161.65,6.948L171.838,6.948L171.838,29.207C171.838,31.043 171.557,32.202 170.994,32.685C170.43,33.167 169.199,33.473 167.299,33.602L167.299,34.762L183.573,34.762L183.573,33.602C181.641,33.473 180.385,33.16 179.806,32.66C179.227,32.163 178.936,31.011 178.936,29.207L178.936,6.948L189.126,6.948L189.126,0.959Z" style="fill:white;fill-rule:nonzero;"/>
        <path d="M232.952,0.959L226.289,15.686L219.287,0.959L210.934,0.959L222.57,21.965L222.57,29.207C222.57,30.978 222.288,32.105 221.725,32.588C221.162,33.072 219.978,33.394 218.176,33.553L218.176,34.762L234.014,34.762L234.014,33.553C232.147,33.394 230.957,33.072 230.441,32.588C229.925,32.105 229.669,30.978 229.669,29.207L229.669,22.109L241.016,0.959L232.952,0.959Z" style="fill:white;fill-rule:nonzero;"/>
        <path d="M382.509,0.959L371.451,0.959L371.451,23.269C371.451,27.518 369.182,29.643 364.643,29.643C362.871,29.643 361.455,29.111 360.393,28.049C359.202,26.859 358.607,25.136 358.607,22.882L358.607,0.959L347.549,0.959L347.549,2.166C349.094,2.296 350.091,2.586 350.541,3.036C351.122,3.583 351.411,4.742 351.411,6.512L351.411,23.51C351.411,27.76 352.796,30.931 355.564,33.023C357.914,34.792 360.988,35.679 364.787,35.679C374.025,35.679 378.647,31.429 378.647,22.931L378.647,6.512C378.647,4.773 378.92,3.631 379.468,3.083C379.918,2.601 380.932,2.296 382.509,2.166L382.509,0.959Z" style="fill:white;fill-rule:nonzero;"/>
        <path d="M419.146,33.554C417.504,33.458 416.375,33.199 415.766,32.781C415.023,32.298 414.654,31.446 414.654,30.221L414.654,0.96L407.555,0.96L407.555,30.221C407.555,31.446 407.17,32.314 406.398,32.83C405.818,33.216 404.754,33.458 403.209,33.554L403.209,34.761L419.146,34.761L419.146,33.554Z" style="fill:white;fill-rule:nonzero;"/>
        <path d="M470.195,28.628L453.44,28.628L453.44,0.959L442.332,0.959L442.332,2.07C443.668,2.135 444.622,2.344 445.195,2.698C445.959,3.214 446.34,4.131 446.34,5.45L446.34,30.222C446.34,31.445 446.054,32.267 445.482,32.685C444.908,33.102 443.859,33.394 442.332,33.553L442.332,34.762L470.195,34.762L470.195,28.628Z" style="fill:white;fill-rule:nonzero;"/>
        <path d="M520.588,28.628L503.832,28.628L503.832,0.959L492.726,0.959L492.726,2.07C494.061,2.135 495.016,2.344 495.588,2.698C496.353,3.214 496.732,4.131 496.732,5.45L496.732,30.222C496.732,31.445 496.446,32.267 495.874,32.685C495.302,33.102 494.253,33.394 492.726,33.553L492.726,34.762L520.588,34.762L520.588,28.628Z" style="fill:white;fill-rule:nonzero;"/>
        <path d="M416.469,41.77C371.899,41.845 344.279,41.845 313.579,41.606C306.648,41.553 303.949,44.018 303.901,43.182C303.852,42.302 314.963,34.775 314.963,34.775L314.865,34.778C316.382,34.29 317.8,33.606 319.098,32.685C323.378,29.691 325.519,24.75 325.519,17.86C325.519,10.972 323.378,6.013 319.098,2.986C316.297,1.025 313.029,0.041 309.295,0.041C305.528,0.041 302.261,1.025 299.492,2.986C295.178,6.013 293.021,10.972 293.021,17.86C293.021,24.75 295.178,29.691 299.492,32.685C301.774,34.304 304.416,35.218 307.377,35.5L291.336,48.094L293.567,50.765C293.567,50.765 302.74,43.084 311.419,44.09C319.176,44.989 340.982,56.716 362.739,56.992C373.749,57.131 383.545,55.479 391.672,53.223L384.705,45.61L396.913,51.62C410.077,47.19 417.51,41.648 416.469,41.77ZM309.295,33.022C303.725,33.022 300.94,27.969 300.94,17.86C300.94,13.708 301.504,10.327 302.632,7.719C304.079,4.372 306.301,2.697 309.295,2.697C312.289,2.697 314.51,4.372 315.959,7.719C317.084,10.327 317.648,13.708 317.648,17.86C317.648,27.969 314.864,33.022 309.295,33.022Z" style="fill:white;fill-rule:nonzero;"/>
    </g>
</svg>
