<?xml version="1.0" encoding="UTF-8" standalone="no"?>
<!DOCTYPE svg PUBLIC "-//W3C//DTD SVG 1.1//EN" "http://www.w3.org/Graphics/SVG/1.1/DTD/svg11.dtd">
<svg width="100%" height="100%" viewBox="0 0 1625 550" version="1.1" xmlns="http://www.w3.org/2000/svg" xmlns:xlink="http://www.w3.org/1999/xlink" xml:space="preserve" xmlns:serif="http://www.serif.com/" style="fill-rule:evenodd;clip-rule:evenodd;stroke-linejoin:round;stroke-miterlimit:2;">
    <g transform="matrix(4.16667,0,0,4.16667,0,0)">
        <path d="M61.492,43.09C65.28,41.826 68.249,39.518 70.403,36.171C72.557,32.821 73.635,28.952 73.635,24.56C73.635,19.503 72.111,14.963 69.068,10.944C64.759,5.291 58.074,2.462 49.015,2.462L0,2.462L0,5.14C3.563,5.291 5.975,5.883 7.238,6.925C8.872,8.34 9.689,11.094 9.689,15.185L9.689,67.982C9.689,71.927 9.115,74.454 7.963,75.571C6.812,76.686 4.158,77.467 0,77.914L0,80.592L25.51,80.592L25.51,49.9L42.377,49.9C48,49.9 51.625,51.054 53.256,53.359C54.44,55.144 55.031,58.979 55.031,64.857C55.031,71.404 55.629,76.651 56.825,80.592L74.86,80.592L74.86,78.586C73.374,77.991 72.427,76.798 72.019,75.014C71.611,73.227 71.406,69.207 71.406,62.957C71.406,56.189 70.551,51.388 68.843,48.559C67.656,46.478 65.206,44.653 61.492,43.09ZM57.26,26.179C57.26,33.285 53.063,36.839 44.67,36.839L25.51,36.839L25.51,20.456C25.51,18.36 26.102,17.014 27.292,16.416C28.109,16.043 29.778,15.854 32.305,15.854L45.895,15.854C53.472,15.854 57.26,19.296 57.26,26.179Z" style="fill:white;fill-rule:nonzero;"/>
        <path d="M389.521,96.796C286.698,96.971 222.978,96.971 152.154,96.417C136.164,96.293 129.934,101.99 129.825,100.061C129.709,98.028 155.344,80.625 155.344,80.625L155.12,80.635C158.621,79.504 161.888,77.921 164.883,75.793C174.759,68.873 179.698,57.453 179.698,41.528C179.698,25.606 174.759,14.144 164.883,7.147C158.422,2.611 150.881,0.341 142.27,0.341C133.577,0.341 126.04,2.611 119.653,7.147C109.7,14.144 104.725,25.606 104.725,41.528C104.725,57.453 109.7,68.873 119.653,75.793C124.918,79.536 131.011,81.647 137.845,82.304L100.839,111.413L105.986,117.584C105.986,117.584 127.15,99.836 147.168,102.159C165.067,104.236 215.369,131.344 265.568,131.981C290.966,132.303 313.565,128.486 332.317,123.265L316.237,105.675L344.402,119.566C374.776,109.32 391.924,96.515 389.521,96.796ZM142.27,76.574C129.419,76.574 122.997,64.893 122.997,41.528C122.997,31.927 124.294,24.114 126.895,18.089C130.235,10.349 135.362,6.478 142.27,6.478C149.174,6.478 154.3,10.349 157.641,18.089C160.239,24.114 161.542,31.927 161.542,41.528C161.542,64.893 155.117,76.574 142.27,76.574Z" style="fill:white;fill-rule:nonzero;"/>
    </g>
</svg>
